HIERARCHY
ROOT Hips
{
	OFFSET 0.000000 0.000000 0.000000 
	CHANNELS 6 Xposition Yposition Zposition Zrotation Yrotation Xrotation
	JOINT LeftUpLeg
	{
		OFFSET 1.363060 -1.794630 0.839290 
		CHANNELS 3 Zrotation Yrotation Xrotation
		JOINT LeftLeg
		{
			OFFSET 2.448110 -6.726130 0.000000 
			CHANNELS 3 Zrotation Yrotation Xrotation
			JOINT LeftFoot
			{
				OFFSET 2.562200 -7.039590 0.000000 
				CHANNELS 3 Zrotation Yrotation Xrotation
				JOINT LeftToeBase
				{
					OFFSET 0.157640 -0.433110 2.322550 
					CHANNELS 3 Zrotation Yrotation Xrotation
					End Site
					{
						OFFSET 0.000000 0.000000 0.000000 
					}
				}
			}
		}
	}
	JOINT RightUpLeg
	{
		OFFSET -1.305520 -1.794630 0.839290 
		CHANNELS 3 Zrotation Yrotation Xrotation
		JOINT RightLeg
		{
			OFFSET -2.542530 -6.985550 0.000000 
			CHANNELS 3 Zrotation Yrotation Xrotation
			JOINT RightFoot
			{
				OFFSET -2.568260 -7.056230 0.000000 
				CHANNELS 3 Zrotation Yrotation Xrotation
				JOINT RightToeBase
				{
					OFFSET -0.164730 -0.452590 2.363150 
					CHANNELS 3 Zrotation Yrotation Xrotation
					End Site
					{
						OFFSET 0.000000 0.000000 0.000000 
					}
				}
			}
		}
	}
	JOINT Spine
	{
		OFFSET 0.028270 2.035590 -0.193380 
		CHANNELS 3 Zrotation Yrotation Xrotation
		JOINT Spine1
		{
			OFFSET 0.056720 2.048850 -0.042750 
			CHANNELS 3 Zrotation Yrotation Xrotation
			JOINT Neck1
			{
				OFFSET -0.054170 1.746240 0.172020 
				CHANNELS 3 Zrotation Yrotation Xrotation
				JOINT Head
				{
					OFFSET 0.104070 1.761360 -0.123970 
					CHANNELS 3 Zrotation Yrotation Xrotation
					End Site
					{
						OFFSET 0.000000 0.000000 0.000000 
					}
				}
			}
			JOINT LeftArm
			{
				OFFSET 3.362410 1.200890 -0.311210 
				CHANNELS 3 Zrotation Yrotation Xrotation
				JOINT LeftForeArm
				{
					OFFSET 4.983000 -0.000000 -0.000000 
					CHANNELS 3 Zrotation Yrotation Xrotation
					JOINT LeftHand
					{
						OFFSET 3.483560 -0.000000 -0.000000 
						CHANNELS 3 Zrotation Yrotation Xrotation
						JOINT LeftHandIndex1
						{
							OFFSET 0.715260 -0.000000 -0.000000 
							CHANNELS 3 Zrotation Yrotation Xrotation
							End Site
							{
								OFFSET 0.000000 0.000000 0.000000 
							}
						}
					}
				}
			}
			JOINT RightArm
			{
				OFFSET -3.136600 1.374050 -0.404650 
				CHANNELS 3 Zrotation Yrotation Xrotation
				JOINT RightForeArm
				{
					OFFSET -5.241900 -0.000000 -0.000000 
					CHANNELS 3 Zrotation Yrotation Xrotation
					JOINT RightHand
					{
						OFFSET -3.444170 -0.000000 -0.000000 
						CHANNELS 3 Zrotation Yrotation Xrotation
						JOINT RightHandIndex1
						{
							OFFSET -0.622530 -0.000000 -0.000000 
							CHANNELS 3 Zrotation Yrotation Xrotation
							End Site
							{
								OFFSET 0.000000 0.000000 0.000000 
							}
						}
					}
				}
			}
		}
	}
}
MOTION
Frames: 12
Frame Time: 0.041667
1.228853 16.295079 0.891313 -0.845804 3.461227 11.570310 -21.967434 -14.152103 -43.104135 1.526411 17.999263 40.650190 -0.423768 4.518474 3.013730 0.592200 4.926800 13.699900 24.201029 -6.179693 -1.343717 -7.107848 -14.833726 53.638168 4.178556 -17.539163 -2.306871 -0.837900 5.839100 -16.318200 -0.247511 8.859591 -5.070292 -8.635065 4.244822 -2.343441 3.423794 -1.578961 17.437440 -3.535500 1.056900 17.450000 -52.221826 -6.014313 20.294831 150.891288 -28.103096 -112.001458 4.937397 -1.828626 0.648960 -7.125000 0.000000 0.000000 66.503112 17.789174 26.218907 -144.669443 33.307447 -108.799224 -0.765961 0.402191 -13.075811 7.125000 0.000000 0.000000 
1.264855 16.333428 0.991714 -0.369302 4.877815 10.943391 -23.112627 -14.605349 -41.537722 1.282109 17.670447 39.879430 -0.339250 4.153507 3.215200 0.619200 5.035800 14.010700 23.444956 -6.433741 -3.421025 -8.363724 -15.746104 58.092811 3.202429 -13.900780 -0.859316 -1.006600 6.384100 -17.903000 -0.221778 8.697731 -5.034227 -8.329337 4.183529 -2.383844 3.405403 -2.129121 17.531169 -3.514400 0.831700 17.449800 -52.422539 -6.395073 20.859334 150.833674 -28.125068 -111.966775 4.932148 -1.868639 1.017280 -7.125000 0.000000 0.000000 66.343992 17.281105 25.518672 -144.734988 33.303836 -108.855338 -0.774972 0.404184 -13.224077 7.125000 0.000000 0.000000 
1.297725 16.370212 1.086525 0.094274 6.323950 10.359019 -24.233006 -15.059492 -39.978696 1.042135 17.332050 39.090425 -0.260169 3.812268 3.436006 0.641100 5.122400 14.258100 22.663443 -6.745350 -5.718674 -9.715801 -16.608152 62.721671 2.303635 -10.427199 -0.053035 -1.162400 6.844400 -19.255100 -0.191043 8.508351 -4.994315 -8.004189 4.107707 -2.400103 3.387009 -2.667333 17.613170 -3.493700 0.609400 17.432200 -52.665734 -6.870756 21.475481 150.779148 -28.139148 -111.932258 4.924933 -1.902073 1.387423 -7.125000 0.000000 0.000000 66.171267 16.828459 24.798548 -144.798926 33.303865 -108.908948 -0.784766 0.407320 -13.424442 7.125000 0.000000 0.000000 
1.327130 16.405767 1.175187 0.509678 7.810101 9.811190 -25.283228 -15.503332 -38.445299 0.812653 16.992094 38.305607 -0.180811 3.464067 3.681926 0.660500 5.198000 14.474200 21.912504 -7.097673 -8.195885 -11.160831 -17.403804 67.468323 1.523252 -7.293939 0.200215 -1.309600 7.248900 -20.455000 -0.146271 8.268835 -4.949939 -7.625116 4.008273 -2.388230 3.368556 -3.163935 17.681209 -3.475400 0.399600 17.402300 -52.979787 -7.410803 22.120037 150.733605 -28.137509 -111.904585 4.912060 -1.925302 1.710208 -7.125000 0.000000 0.000000 65.952794 16.450686 24.079653 -144.858717 33.309141 -108.956558 -0.795712 0.413099 -13.663021 7.125000 0.000000 0.000000 
1.352734 16.439979 1.258370 0.834224 9.333928 9.275927 -26.214642 -15.937758 -36.936682 0.601700 16.659270 37.553907 -0.099350 3.095818 3.944573 0.681800 5.279300 14.707000 21.239941 -7.456776 -10.796914 -12.683565 -18.116377 72.272601 0.876811 -4.601009 -0.018283 -1.461600 7.640900 -21.628600 -0.090526 7.999302 -4.902987 -7.223286 3.890598 -2.359910 3.355981 -3.641769 17.738844 -3.451100 0.194500 17.360800 -53.335117 -8.007474 22.832522 150.703568 -28.114766 -111.883767 4.897487 -1.935302 1.951844 -7.125000 0.000000 0.000000 65.694041 16.113334 23.348554 -144.919618 33.314220 -109.002905 -0.808460 0.420229 -13.868245 7.125000 0.000000 0.000000 
1.374647 16.472962 1.336634 1.036248 10.881358 8.736401 -26.990167 -16.352714 -35.464424 0.415863 16.342413 36.862793 -0.015229 2.697878 4.212606 0.705400 5.368200 14.961600 20.675657 -7.781237 -13.484837 -14.258566 -18.734199 77.073755 0.351746 -2.340246 -0.574779 -1.611200 8.004300 -22.727200 -0.021356 7.701068 -4.853952 -6.798321 3.754569 -2.317201 3.348099 -4.089193 17.786797 -3.423000 -0.001400 17.312300 -53.737945 -8.640326 23.613904 150.692601 -28.069425 -111.870182 4.884674 -1.932893 2.094356 -7.125000 0.000000 0.000000 65.398424 15.821260 22.618529 -144.978547 33.320845 -109.046415 -0.821105 0.429561 -14.032441 7.125000 0.000000 0.000000 
1.393431 16.504826 1.410313 1.094690 12.439835 8.181335 -27.584265 -16.755220 -34.040514 0.259492 16.049988 36.253548 0.069282 2.280012 4.471220 0.732800 5.469200 15.251900 20.232256 -8.047492 -16.234497 -15.853834 -19.250482 81.811202 -0.072848 -0.459873 -1.344401 -1.747800 8.319700 -23.689500 0.062795 7.374036 -4.801666 -6.346340 3.600399 -2.245814 3.346304 -4.497592 17.824163 -3.389400 -0.185900 17.261600 -54.184676 -9.307515 24.446626 150.702852 -28.000024 -111.865648 4.872919 -1.918720 2.122819 -7.125000 0.000000 0.000000 65.055025 15.593392 21.899491 -145.035849 33.328423 -109.086653 -0.834247 0.440598 -14.147174 7.125000 0.000000 0.000000 
1.409307 16.535796 1.480527 1.004732 13.982968 7.588485 -27.991879 -17.160897 -32.652309 0.134139 15.784171 35.733987 0.148023 1.871314 4.696764 0.763600 5.580500 15.572000 19.900178 -8.237389 -19.013113 -17.436876 -19.661975 86.427709 -0.417398 1.091477 -2.280173 -1.876600 8.604200 -24.564800 0.155058 7.048668 -4.748197 -5.904464 3.440135 -2.163398 3.347287 -4.894656 17.858022 -3.356100 -0.364400 17.205800 -54.640901 -9.998810 25.370644 150.734145 -27.907202 -111.868720 4.862875 -1.897199 2.052245 -7.125000 0.000000 0.000000 64.696086 15.391555 21.154186 -145.081562 33.347884 -109.119412 -0.845370 0.453373 -14.220529 7.125000 0.000000 0.000000 
1.423059 16.566096 1.547946 0.787079 15.491246 6.960026 -28.244235 -17.562641 -31.272830 0.018725 15.518734 35.226012 0.217824 1.504043 4.921706 0.792200 5.681500 15.863000 19.641418 -8.355425 -21.815096 -18.971220 -19.972486 90.851786 -0.697470 2.376542 -3.235286 -1.977900 8.820000 -25.233700 0.256034 6.717079 -4.693181 -5.460891 3.271647 -2.064282 3.350453 -5.262607 17.887554 -3.324300 -0.531000 17.147200 -55.110559 -10.701003 26.343102 150.777505 -27.801652 -111.876506 4.853729 -1.875531 1.920377 -7.125000 0.000000 0.000000 64.330852 15.236248 20.426731 -145.122268 33.372907 -109.146868 -0.854760 0.467272 -14.255578 7.125000 0.000000 0.000000 
1.435134 16.595612 1.613240 0.482294 16.949348 6.302116 -28.387809 -17.970288 -29.927810 -0.074515 15.273393 34.784459 0.277967 1.172047 5.100716 0.816400 5.765700 16.106100 19.405557 -8.416790 -24.637905 -20.442443 -20.189559 95.068869 -0.926634 3.445021 -4.171702 -2.045100 8.959300 -25.668200 0.364834 6.377079 -4.635379 -4.999019 3.096219 -1.939430 3.354486 -5.593730 17.913579 -3.295900 -0.683600 17.085400 -55.591726 -11.407994 27.329683 150.825034 -27.691404 -111.887697 4.841863 -1.857036 1.765784 -7.125000 0.000000 0.000000 63.957458 15.146350 19.730453 -145.152032 33.410931 -109.163342 -0.862735 0.481940 -14.272843 7.125000 0.000000 0.000000 
1.448439 16.644807 1.677976 0.129039 18.335557 5.624673 -28.478284 -18.365352 -28.538506 -0.161018 15.020677 34.344553 0.327415 0.882434 5.210006 0.834000 5.825900 16.280100 19.156792 -8.448582 -27.433208 -21.794160 -20.325337 98.934709 -1.103849 4.302070 -4.979777 -2.089400 9.049900 -25.951700 0.471890 6.055991 -4.577359 -4.552955 2.926241 -1.811608 3.359373 -5.918197 17.939571 -3.270900 -0.829900 17.010400 -56.052479 -12.122719 28.352235 150.860946 -27.592828 -111.893051 4.827404 -1.848107 1.650159 -7.125000 0.000000 0.000000 63.624551 15.077718 19.057228 -145.178436 33.455833 -109.174922 -0.868416 0.495964 -14.266499 7.125000 0.000000 0.000000 
1.458054 16.671416 1.739469 -0.228790 19.640118 4.929983 -28.553743 -18.789655 -27.241482 -0.223773 14.802108 33.991671 0.362140 0.662715 5.286889 0.844700 5.862300 16.385300 18.840710 -8.437299 -30.295117 -23.092997 -20.391470 102.655201 -1.245128 4.993265 -5.762565 -2.104900 9.081200 -26.049600 0.573608 5.758804 -4.520256 -4.127622 2.765037 -1.694428 3.362846 -6.238688 17.969061 -3.252600 -0.968900 16.919600 -56.484156 -12.828665 29.398658 150.881789 -27.507903 -111.894297 4.803903 -1.849030 1.595134 -7.125000 0.000000 0.000000 63.355071 15.012465 18.427630 -145.209082 33.501374 -109.185742 -0.872509 0.507835 -14.233477 7.125000 0.000000 0.000000 
